<?xml version="1.0" ?><svg id="Layer_1" style="enable-background:new 0 0 512 512;" version="1.1" viewBox="0 0 512 512" xml:space="preserve" xmlns="http://www.w3.org/2000/svg" xmlns:xlink="http://www.w3.org/1999/xlink"><style type="text/css">
	.st0{fill:#678AAF;}
	.st1{fill:#FFFFFF;}
</style><g><path class="st0" d="M512,397.1c0,63.5-51.5,114.9-114.9,114.9H114.9C51.5,512,0,460.5,0,397.1V114.9C0,51.5,51.5,0,114.9,0h282.2   C460.5,0,512,51.5,512,114.9V397.1z"/><path class="st1" d="M252.5,349.4h19.7c0,0,6-0.7,9-3.9c2.8-3,2.7-8.7,2.7-8.7s-0.4-26.5,11.9-30.4c12.1-3.9,27.7,25.6,44.2,36.9   c12.5,8.6,22,6.7,22,6.7l44.1-0.6c0,0,23.1-1.4,12.1-19.6c-0.9-1.5-6.4-13.4-32.8-37.9c-27.6-25.6-23.9-21.5,9.4-65.9   c20.3-27,28.4-43.5,25.9-50.6c-2.4-6.7-17.3-4.9-17.3-4.9l-49.7,0.3c0,0-3.7-0.5-6.4,1.1c-2.7,1.6-4.4,5.3-4.4,5.3   s-7.9,20.9-18.4,38.7c-22.1,37.6-30.9,39.5-34.6,37.2c-8.4-5.5-6.3-21.8-6.3-33.5c0-36.4,5.5-51.5-10.8-55.5   c-5.4-1.3-9.4-2.2-23.2-2.3c-17.7-0.2-32.7,0.1-41.2,4.2c-5.6,2.8-10,8.9-7.4,9.3c3.3,0.4,10.7,2,14.7,7.4   c5.1,6.9,4.9,22.5,4.9,22.5s2.9,42.8-6.8,48.2c-6.7,3.7-15.9-3.8-35.6-37.9c-10.1-17.4-17.7-36.7-17.7-36.7s-1.5-3.6-4.1-5.5   c-3.2-2.3-7.6-3.1-7.6-3.1l-47.2,0.3c0,0-7.1,0.2-9.7,3.3c-2.3,2.7-0.2,8.4-0.2,8.4s36.9,86.4,78.8,130   C208.9,352,252.5,349.4,252.5,349.4L252.5,349.4L252.5,349.4z"/></g></svg>